<?xml version="1.0" encoding="UTF-8"?>
<svg version="1.1" xmlns="http://www.w3.org/2000/svg" width="1234" height="1084">
<path d="M0 0 C1.74608306 0.01151941 3.49217852 0.02129622 5.23828125 0.02929688 C6.90105508 0.04269909 8.56381755 0.05761595 10.2265625 0.07421875 C11.38896957 0.08529915 11.38896957 0.08529915 12.57485962 0.09660339 C15.75717445 0.15344398 18.33525576 0.29925192 21.375 1.3125 C21.375 1.9725 21.375 2.6325 21.375 3.3125 C22.220625 3.4775 23.06625 3.6425 23.9375 3.8125 C29.20624618 6.11158924 32.82726341 9.93301826 35.2331543 15.1862793 C37.59652531 21.43779948 37.87835689 27.36689431 37.8125 34 C37.80565186 35.0607373 37.79880371 36.12147461 37.79174805 37.21435547 C37.62126144 45.57266877 36.36404082 52.47112018 33.375 60.3125 C32.77945312 62.06046875 32.77945312 62.06046875 32.171875 63.84375 C28.58410684 74.28915098 24.47888647 84.44773146 19.390625 94.25390625 C18.2627956 96.42220366 18.2627956 96.42220366 17.375 99.3125 C16.715 99.3125 16.055 99.3125 15.375 99.3125 C15.271875 100.01375 15.16875 100.715 15.0625 101.4375 C14.28140997 104.70387647 12.95441257 107.3596852 11.375 110.3125 C10.715 110.3125 10.055 110.3125 9.375 110.3125 C9.25705078 111.31216797 9.25705078 111.31216797 9.13671875 112.33203125 C8.12170959 116.30357992 6.24104931 119.47570475 4.1875 123 C3.78039795 123.71043457 3.3732959 124.42086914 2.95385742 125.15283203 C-0.16817752 130.58229704 -3.36916626 135.96232377 -6.625 141.3125 C-7.60448666 142.95814291 -8.58364643 144.60398044 -9.5625 146.25 C-12.21472134 150.6726652 -14.97259322 155.02096402 -17.75390625 159.36328125 C-20.52646697 163.73339262 -23.22495872 168.14779598 -25.92578125 172.5625 C-27.12375884 174.50129592 -28.36080918 176.41621376 -29.625 178.3125 C-30.285 178.3125 -30.945 178.3125 -31.625 178.3125 C-31.83125 179.116875 -32.0375 179.92125 -32.25 180.75 C-34.05662693 185.43080614 -36.75829966 189.22277805 -39.625 193.3125 C-40.285 194.3025 -40.945 195.2925 -41.625 196.3125 C-42.285 196.3125 -42.945 196.3125 -43.625 196.3125 C-43.7075 196.84875 -43.79 197.385 -43.875 197.9375 C-44.89656573 201.17245815 -46.68301203 203.53823148 -48.625 206.3125 C-49.24375 207.240625 -49.8625 208.16875 -50.5 209.125 C-51.66666667 210.875 -52.83333333 212.625 -54 214.375 C-54.7425 215.48875 -54.7425 215.48875 -55.5 216.625 C-56.26376953 217.76775391 -56.26376953 217.76775391 -57.04296875 218.93359375 C-58.11527046 220.54601781 -59.180162 222.16338994 -60.23828125 223.78515625 C-60.75777344 224.57792969 -61.27726563 225.37070313 -61.8125 226.1875 C-62.28042969 226.90679687 -62.74835937 227.62609375 -63.23046875 228.3671875 C-64.56419866 230.22768468 -65.99554355 231.71403864 -67.625 233.3125 C-68.9690093 235.30534138 -70.30041292 237.30669671 -71.625 239.3125 C-72.59708315 240.60950597 -73.57669234 241.90089462 -74.5625 243.1875 C-77.16396317 246.59903904 -79.40392158 250.1292974 -81.546875 253.84375 C-81.90265625 254.3284375 -82.2584375 254.813125 -82.625 255.3125 C-83.285 255.3125 -83.945 255.3125 -84.625 255.3125 C-84.8725 256.01761719 -85.12 256.72273438 -85.375 257.44921875 C-86.78603659 260.68137443 -88.5500726 263.27578902 -90.625 266.125 C-91.32625 267.10082031 -92.0275 268.07664062 -92.75 269.08203125 C-93.678125 270.18611328 -93.678125 270.18611328 -94.625 271.3125 C-95.285 271.3125 -95.945 271.3125 -96.625 271.3125 C-96.83125 272.158125 -97.0375 273.00375 -97.25 273.875 C-98.69859979 277.49649947 -100.30076071 279.45011847 -102.87109375 282.29296875 C-106.9494551 286.98898839 -110.41577098 292.21557239 -114.02490234 297.27490234 C-115.51079206 299.354172 -117.00501297 301.42726507 -118.5 303.5 C-118.97655029 304.17224609 -119.45310059 304.84449219 -119.9440918 305.53710938 C-121.12205696 307.16550407 -122.36794388 308.74435424 -123.625 310.3125 C-124.285 310.3125 -124.945 310.3125 -125.625 310.3125 C-125.851875 310.993125 -126.07875 311.67375 -126.3125 312.375 C-127.93726146 316.0113709 -129.95303257 319.34079263 -132.625 322.3125 C-133.285 322.3125 -133.945 322.3125 -134.625 322.3125 C-134.90472656 322.88871094 -135.18445313 323.46492188 -135.47265625 324.05859375 C-136.58380369 326.23192281 -137.77884584 328.29955916 -139.0625 330.375 C-139.47371094 331.04660156 -139.88492188 331.71820313 -140.30859375 332.41015625 C-141.60467454 334.2831276 -142.99988248 335.72547118 -144.625 337.3125 C-145.50105896 338.42053718 -146.35358785 339.54740517 -147.1875 340.6875 C-149.87829504 344.32173429 -152.61430523 347.91871655 -155.375 351.5 C-155.79950439 352.05115479 -156.22400879 352.60230957 -156.66137695 353.17016602 C-158.42593557 355.4606323 -160.1915182 357.75030843 -161.95703125 360.04003906 C-162.83455426 361.17835984 -163.71183591 362.31686672 -164.58886719 363.45556641 C-165.4377139 364.55739136 -166.28730813 365.65864088 -167.13769531 366.75927734 C-169.99068235 370.45949434 -172.76568964 374.20853046 -175.46875 378.01953125 C-176.04109375 378.65955078 -176.04109375 378.65955078 -176.625 379.3125 C-177.285 379.3125 -177.945 379.3125 -178.625 379.3125 C-178.83125 379.993125 -179.0375 380.67375 -179.25 381.375 C-180.80075597 384.68797866 -182.74970724 386.9703015 -185.1875 389.6640625 C-186.81774687 391.46209934 -186.81774687 391.46209934 -188.625 394.3125 C-189.285 394.3125 -189.945 394.3125 -190.625 394.3125 C-190.88023437 395.04082031 -191.13546875 395.76914062 -191.3984375 396.51953125 C-192.69531613 399.47261477 -194.19469047 401.52298353 -196.25 404 C-196.96542969 404.87140625 -197.68085937 405.7428125 -198.41796875 406.640625 C-199.14628906 407.52234375 -199.87460937 408.4040625 -200.625 409.3125 C-201.94035734 410.95605063 -203.25290589 412.6018535 -204.5625 414.25 C-207.41124918 417.81372936 -210.29094132 421.35003537 -213.1875 424.875 C-215.7937485 428.05205675 -218.36807504 431.24409252 -220.875 434.5 C-224.73438116 439.51089815 -228.76201676 444.38163992 -232.77172852 449.2722168 C-236.78489773 454.19792021 -240.53872183 459.22969667 -244.13671875 464.46875 C-244.62785156 465.0771875 -245.11898437 465.685625 -245.625 466.3125 C-246.285 466.3125 -246.945 466.3125 -247.625 466.3125 C-247.625 466.9725 -247.625 467.6325 -247.625 468.3125 C-248.285 468.3125 -248.945 468.3125 -249.625 468.3125 C-249.98464844 469.38177734 -249.98464844 469.38177734 -250.3515625 470.47265625 C-251.81899094 473.7451117 -253.67349346 476.02543669 -256 478.75 C-258.5272228 481.75183768 -260.978802 484.67242145 -263.0625 488 C-263.578125 488.763125 -264.09375 489.52625 -264.625 490.3125 C-265.285 490.3125 -265.945 490.3125 -266.625 490.3125 C-266.8725 491.03566406 -267.12 491.75882812 -267.375 492.50390625 C-268.75625886 495.60742224 -270.40834056 497.68105005 -272.625 500.25 C-276.74098703 505.15061784 -280.50352255 510.21196862 -284.17382812 515.45288086 C-286.54948196 518.83935784 -289.02001946 522.10003388 -291.625 525.3125 C-299.67927991 535.70415874 -307.2581331 545.80861402 -311.625 558.3125 C-312.285 558.3125 -312.945 558.3125 -313.625 558.3125 C-313.73070312 559.13234375 -313.83640625 559.9521875 -313.9453125 560.796875 C-314.74026349 564.90869046 -316.05444235 568.64241049 -317.5 572.5625 C-319.48273806 578.04921479 -321.38356377 583.52361783 -322.984375 589.13671875 C-323.47961701 590.81872973 -324.02138146 592.48708341 -324.58203125 594.1484375 C-325.68399585 597.49147617 -326.62877619 600.85634519 -327.5625 604.25 C-328.95009237 609.13718195 -330.52049667 613.68259267 -332.625 618.3125 C-335.16576104 624.6472353 -337.56414852 631.01291045 -339.6875 637.5 C-341.78701075 643.90858725 -344.036083 650.23345877 -347.1328125 656.234375 C-348.57434138 659.20800003 -349.5349751 662.01423895 -350.4375 665.1875 C-352.58315477 672.39194853 -355.19626521 679.37361158 -357.88891602 686.38623047 C-358.65393846 688.38822951 -359.4062954 690.39465528 -360.15625 692.40234375 C-361.42789703 695.80124452 -362.74090057 699.18267195 -364.0625 702.5625 C-366.45074341 708.75022157 -368.58937732 715.00093246 -370.625 721.3125 C-371.285 721.3125 -371.945 721.3125 -372.625 721.3125 C-372.851875 722.529375 -373.07875 723.74625 -373.3125 725 C-374.47009193 730.25877475 -376.40969739 735.1074644 -378.39453125 740.1015625 C-379.74506792 743.6258201 -380.8464377 747.16536232 -381.8515625 750.80078125 C-382.54870916 753.06474743 -383.33659159 755.25433707 -384.17333984 757.46948242 C-384.44479828 758.18931808 -384.71625671 758.90915375 -384.99594116 759.65080261 C-385.20353058 760.19916275 -385.41112 760.74752289 -385.625 761.3125 C-384.54855225 761.30379883 -383.47210449 761.29509766 -382.36303711 761.28613281 C-317.78955605 760.9328288 -252.70675905 765.0685073 -189.625 779.3125 C-188.84626526 779.48821533 -188.06753052 779.66393066 -187.26519775 779.8449707 C-171.05724748 783.51407801 -154.88770794 787.25831125 -138.9375 791.9375 C-117.78724502 798.09036593 -95.92348747 801.76738597 -74.1875 805.1875 C-72.8977124 805.39068848 -71.6079248 805.59387695 -70.27905273 805.80322266 C-38.85240127 810.57704819 -3.06569852 811.12709092 23.953125 791.81640625 C28.25406064 788.6187 32.3658305 785.34320228 36.12109375 781.5078125 C38.375 779.3125 38.375 779.3125 40.375 779.3125 C40.64739502 778.71646973 40.91979004 778.12043945 41.20043945 777.50634766 C42.3454709 775.36765455 43.48319247 773.93813122 45.16796875 772.2109375 C45.71235596 771.64366943 46.25674316 771.07640137 46.81762695 770.49194336 C47.68133911 769.5987439 47.68133911 769.5987439 48.5625 768.6875 C53.74395413 763.20854611 58.34620201 757.71003705 62.375 751.3125 C63.06464844 750.22582031 63.75429687 749.13914062 64.46484375 748.01953125 C67.68057001 742.89124476 70.73067266 737.76438476 73.375 732.3125 C74.035 732.3125 74.695 732.3125 75.375 732.3125 C75.65085937 731.43207031 75.92671875 730.55164063 76.2109375 729.64453125 C77.27887373 726.58765338 78.51291719 723.87031906 80 721 C82.68373109 715.7321813 85.24123731 710.41583081 87.75 705.0625 C88.10787598 704.29897217 88.46575195 703.53544434 88.83447266 702.7487793 C89.68246901 700.9372259 90.52890689 699.1249431 91.375 697.3125 C92.035 697.3125 92.695 697.3125 93.375 697.3125 C93.436875 696.6525 93.49875 695.9925 93.5625 695.3125 C94.51169311 691.80778699 96.08557496 689.35577769 98.0625 686.33984375 C99.18328871 684.60862548 100.19754886 682.80922104 101.1875 681 C103.63580383 676.62947416 106.68373076 672.68201799 109.66796875 668.66796875 C111.37686961 666.44438014 111.37686961 666.44438014 112.375 664.3125 C113.035 664.3125 113.695 664.3125 114.375 664.3125 C114.375 663.6525 114.375 662.9925 114.375 662.3125 C115.035 662.3125 115.695 662.3125 116.375 662.3125 C116.601875 661.755625 116.82875 661.19875 117.0625 660.625 C118.37643923 658.30996421 119.86424369 656.73084729 121.78515625 654.91015625 C123.77158329 652.9139679 125.54754643 650.7676474 127.375 648.625 C131.88343706 643.5755505 136.83323219 639.61723843 142.2578125 635.625 C144.8469472 633.70423842 147.29038437 631.70407133 149.75 629.625 C161.15822895 620.70968034 176.26199929 615.60566603 190.69140625 616.5234375 C200.32713202 617.70696813 207.05428147 620.82743858 213.375 628.3125 C221.79881399 640.07271223 226.43606398 654.54291434 230.375 668.3125 C230.6174646 669.00376984 230.8599292 669.69503967 231.10974121 670.40725708 C233.33730241 677.02106014 233.78795072 682.95794676 233.703125 689.90234375 C233.70125183 690.96868546 233.69937866 692.03502716 233.69744873 693.13368225 C233.69077126 695.36820646 233.67694373 697.60271984 233.65625 699.8371582 C233.62486635 703.26459563 233.61524957 706.69157317 233.609375 710.11914062 C233.60021277 712.29688064 233.5898395 714.47461597 233.578125 716.65234375 C233.57387512 717.67730453 233.56962524 718.70226532 233.56524658 719.75828552 C233.55083527 721.18105553 233.55083527 721.18105553 233.53613281 722.63256836 C233.52930481 723.46622421 233.52247681 724.29988007 233.51544189 725.15879822 C233.375 727.3125 233.375 727.3125 232.375 730.3125 C231.715 730.3125 231.055 730.3125 230.375 730.3125 C230.2925 731.1375 230.21 731.9625 230.125 732.8125 C229.20352615 737.1127113 227.42417302 740.45566364 225.375 744.3125 C224.76982202 745.58285205 224.16565835 746.85368779 223.5625 748.125 C219.81920347 755.58211828 215.54851429 762.63954092 209.375 768.3125 C208.776875 769.09625 208.17875 769.88 207.5625 770.6875 C204.51940693 774.33921169 201.0162065 777.2707989 197.375 780.3125 C196.62089844 780.95445312 195.86679688 781.59640625 195.08984375 782.2578125 C188.5845067 787.65248225 181.63401042 792.00721762 174.375 796.3125 C173.48425781 796.86035156 172.59351563 797.40820312 171.67578125 797.97265625 C162.37034123 803.68447265 152.89478735 807.99261604 142.65234375 811.73046875 C139.9168355 812.73132476 137.20359464 813.7695543 134.50390625 814.86328125 C122.83729475 819.57301398 110.94872674 823.52269968 98.98657227 827.4050293 C90.7595493 830.05014669 90.7595493 830.05014669 82.7890625 833.37109375 C77.33347735 835.92236881 71.56448159 837.45568245 65.78915405 839.11724854 C54.45594086 842.38680469 43.31087848 845.86682766 32.375 850.3125 C30.92732426 850.88342378 29.47939559 851.45370654 28.03125 852.0234375 C14.21730817 857.06021069 14.21730817 857.06021069 2.375 865.3125 C3.0047876 865.16627197 3.6345752 865.02004395 4.28344727 864.86938477 C7.16744074 864.20156557 10.05245251 863.53825031 12.9375 862.875 C13.92814453 862.64490234 14.91878906 862.41480469 15.93945312 862.17773438 C26.41671029 859.7759711 37.54601089 857.37761975 48.125 860.375 C50.375 862.3125 50.375 862.3125 51.375 865.625 C51.375 869.48419389 51.06694765 871.851698 49.375 875.3125 C43.87913444 880.36942788 37.27364672 882.08924275 30.3125 884.375 C29.61290161 884.60839081 28.91330322 884.84178162 28.19250488 885.08224487 C12.94111758 890.14429369 -2.59573885 894.02493496 -18.21118164 897.78344727 C-19.13212112 898.00556885 -20.05306061 898.22769043 -21.00190735 898.45654297 C-22.73128002 898.87180035 -24.46160783 899.28310799 -26.19303894 899.68969727 C-33.18221117 901.35757152 -37.51258532 902.61998548 -42.0625 908.5 C-43.22652344 909.97726562 -43.22652344 909.97726562 -44.4140625 911.484375 C-45.14367187 912.41765625 -45.87328125 913.3509375 -46.625 914.3125 C-47.71923342 915.63329276 -48.82174256 916.94733903 -49.9375 918.25 C-50.36675781 918.75402344 -50.79601562 919.25804687 -51.23828125 919.77734375 C-52.29872262 920.95129716 -53.40895208 922.08045306 -54.5390625 923.1875 C-56.77545956 925.46577716 -58.72011596 927.86175217 -60.6875 930.375 C-65.40013186 936.3901635 -65.40013186 936.3901635 -67.625 938.3125 C-68.285 938.3125 -68.945 938.3125 -69.625 938.3125 C-69.851875 938.828125 -70.07875 939.34375 -70.3125 939.875 C-73.31671614 945.45425854 -77.10261069 949.89289227 -81.625 954.3125 C-86.47726745 959.58590764 -91.22175873 964.95749313 -95.92578125 970.36328125 C-97.12620551 971.74031965 -98.33251563 973.11223763 -99.54296875 974.48046875 C-100.16816406 975.18816406 -100.79335938 975.89585937 -101.4375 976.625 C-102.00082031 977.26050781 -102.56414063 977.89601563 -103.14453125 978.55078125 C-104.79886163 980.45343438 -104.79886163 980.45343438 -106.625 983.3125 C-107.285 983.3125 -107.945 983.3125 -108.625 983.3125 C-108.86476563 983.87066406 -109.10453125 984.42882812 -109.3515625 985.00390625 C-110.90204087 987.81474281 -112.81781874 989.8974491 -115 992.25 C-117.37615587 994.82085761 -119.65510472 997.35167961 -121.7890625 1000.12890625 C-122.69785156 1001.20978516 -122.69785156 1001.20978516 -123.625 1002.3125 C-124.285 1002.3125 -124.945 1002.3125 -125.625 1002.3125 C-125.851875 1003.034375 -126.07875 1003.75625 -126.3125 1004.5 C-127.90110081 1007.90414459 -129.93488632 1009.68216663 -132.625 1012.3125 C-133.74422776 1013.75930661 -134.84717107 1015.21879208 -135.9375 1016.6875 C-138.88180022 1020.55550225 -142.06523906 1023.59603255 -145.7890625 1026.69921875 C-147.85314145 1028.42919298 -147.85314145 1028.42919298 -150.125 1031.3125 C-153.84667098 1035.77850518 -158.02248435 1040.44499478 -163.625 1042.3125 C-163.625 1042.9725 -163.625 1043.6325 -163.625 1044.3125 C-167.08653846 1047.3125 -167.08653846 1047.3125 -169.625 1047.3125 C-169.625 1047.9725 -169.625 1048.6325 -169.625 1049.3125 C-175.71690634 1054.67565493 -181.79791598 1058.25949436 -189.625 1060.3125 C-190.77734375 1058.8125 -190.77734375 1058.8125 -191.625 1056.3125 C-190.95761258 1053.48732633 -190.20556319 1051.00800297 -189.1875 1048.3125 C-188.91107666 1047.55718994 -188.63465332 1046.80187988 -188.34985352 1046.02368164 C-185.81113672 1039.33444323 -182.48676682 1033.33072071 -178.625 1027.3125 C-178.13515625 1026.48363281 -177.6453125 1025.65476562 -177.140625 1024.80078125 C-176.03196723 1022.93236684 -174.83811612 1021.11484396 -173.625 1019.3125 C-172.965 1019.3125 -172.305 1019.3125 -171.625 1019.3125 C-171.3775 1018.59707031 -171.13 1017.88164063 -170.875 1017.14453125 C-169.48636405 1013.99840294 -167.78036054 1011.67439037 -165.625 1009 C-164.92375 1008.11699219 -164.2225 1007.23398437 -163.5 1006.32421875 C-162.88125 1005.66035156 -162.2625 1004.99648438 -161.625 1004.3125 C-160.965 1004.3125 -160.305 1004.3125 -159.625 1004.3125 C-158.965 1002.6625 -158.305 1001.0125 -157.625 999.3125 C-156.965 999.3125 -156.305 999.3125 -155.625 999.3125 C-155.625 998.6525 -155.625 997.9925 -155.625 997.3125 C-154.31806167 995.95328414 -152.97553546 994.62840635 -151.625 993.3125 C-150.57399564 992.13325638 -149.53343025 990.94467469 -148.5 989.75 C-145.58768005 986.39395748 -142.62036798 983.09465853 -139.625 979.8125 C-134.90015719 974.63018376 -130.23243753 969.40417593 -125.7109375 964.04296875 C-124.77121094 962.93888672 -124.77121094 962.93888672 -123.8125 961.8125 C-123.24917969 961.1421875 -122.68585937 960.471875 -122.10546875 959.78125 C-120.625 958.3125 -120.625 958.3125 -118.625 958.3125 C-118.439375 957.6525 -118.25375 956.9925 -118.0625 956.3125 C-115.53505105 951.03782393 -111.33645403 947.02116664 -107.2265625 942.91796875 C-100.1157058 935.79643509 -93.52453877 928.3239575 -87.31640625 920.41015625 C-85.25357596 917.85186557 -82.97663759 915.60678058 -80.625 913.3125 C-79.06954747 911.67968926 -77.52928672 910.03234293 -76 908.375 C-75.24460937 907.56160156 -74.48921875 906.74820313 -73.7109375 905.91015625 C-71.52019946 903.18198996 -70.14116996 900.45375551 -68.625 897.3125 C-69.41334229 897.26762451 -70.20168457 897.22274902 -71.01391602 897.17651367 C-114.37091227 894.65052746 -157.54601744 887.73477072 -196.55859375 867.3046875 C-201.94395906 864.533671 -207.68197886 862.65956958 -213.375 860.625 C-222.6883852 857.24380751 -231.76514675 853.59801362 -240.75219727 849.43139648 C-246.33635466 846.85334172 -251.96738523 844.58740156 -257.74511719 842.48388672 C-262.73312649 840.66489397 -267.65487146 838.71328254 -272.5625 836.6875 C-273.23627686 836.41019043 -273.91005371 836.13288086 -274.60424805 835.84716797 C-278.03189602 834.42519769 -281.42695655 832.95104692 -284.80395508 831.41259766 C-289.39421382 829.37002874 -294.05179606 827.64474392 -298.796875 826 C-299.64115051 825.70440186 -300.48542603 825.40880371 -301.35528564 825.10424805 C-303.12945142 824.48402088 -304.90426171 823.86563451 -306.6796875 823.24902344 C-309.35583513 822.3191591 -312.02960979 821.382715 -314.703125 820.4453125 C-340.91695391 811.2827392 -365.86421027 806.3229502 -393.625 805.3125 C-394.42067383 805.27850098 -395.21634766 805.24450195 -396.03613281 805.20947266 C-398.44075161 805.11469276 -400.84411957 805.05245379 -403.25 805 C-403.971875 804.97019043 -404.69375 804.94038086 -405.4375 804.90966797 C-410.89520106 804.85006947 -415.08016274 806.26222511 -419.625 809.3125 C-421.94777416 811.9216387 -421.94777416 811.9216387 -423.625 814.3125 C-424.285 814.3125 -424.945 814.3125 -425.625 814.3125 C-425.8725 815.00730469 -426.12 815.70210937 -426.375 816.41796875 C-427.81511856 819.75274329 -429.61575038 822.60004515 -431.625 825.625 C-432.32625 826.69363281 -433.0275 827.76226563 -433.75 828.86328125 C-434.36875 829.67152344 -434.9875 830.47976563 -435.625 831.3125 C-436.285 831.3125 -436.945 831.3125 -437.625 831.3125 C-437.810625 831.9725 -437.99625 832.6325 -438.1875 833.3125 C-440.2781619 837.6756205 -443.2863983 840.84524312 -446.625 844.3125 C-447.26308594 844.97636719 -447.90117188 845.64023437 -448.55859375 846.32421875 C-459.73101679 857.07424394 -474.07173755 861.97671748 -488.625 866.3125 C-489.6154834 866.6221167 -489.6154834 866.6221167 -490.62597656 866.93798828 C-501.83899542 870.43812153 -517.25950199 874.29339554 -528.625 869.3125 C-533.31779084 866.55983824 -537.57758121 863.49126517 -539.625 858.3125 C-541.98589175 848.98047118 -539.00457138 841.49405872 -534.5 833.3125 C-529.62588511 825.28879816 -523.22948308 818.90686901 -516.625 812.3125 C-515.76519531 811.42949219 -514.90539062 810.54648437 -514.01953125 809.63671875 C-513.16746094 808.76660156 -512.31539062 807.89648438 -511.4375 807 C-510.57769531 806.11699219 -509.71789062 805.23398437 -508.83203125 804.32421875 C-506.625 802.3125 -506.625 802.3125 -504.625 802.3125 C-504.37105469 801.72210937 -504.11710937 801.13171875 -503.85546875 800.5234375 C-502.48993092 798.06980445 -501.08408316 796.73405094 -498.9375 794.9375 C-498.29425781 794.39351562 -497.65101563 793.84953125 -496.98828125 793.2890625 C-496.20839844 792.63679687 -495.42851562 791.98453125 -494.625 791.3125 C-494.14345459 790.8697876 -493.66190918 790.4270752 -493.16577148 789.97094727 C-488.2312896 785.51392523 -482.82043591 782.28996562 -477.0625 779 C-475.10307496 777.85994719 -473.14474123 776.71801667 -471.1875 775.57421875 C-469.764375 774.74349854 -469.764375 774.74349854 -468.3125 773.89599609 C-464.68991209 771.76153886 -461.11031967 769.56877808 -457.5625 767.3125 C-456.51964844 766.6525 -455.47679687 765.9925 -454.40234375 765.3125 C-450.17320002 762.26704066 -446.7480935 758.57507003 -443.375 754.625 C-442.87484375 754.04363281 -442.3746875 753.46226562 -441.859375 752.86328125 C-440.54064199 751.31638466 -440.54064199 751.31638466 -439.625 749.3125 C-438.965 749.3125 -438.305 749.3125 -437.625 749.3125 C-437.398125 748.631875 -437.17125 747.95125 -436.9375 747.25 C-435.625 744.3125 -435.625 744.3125 -433.4375 741.4375 C-420.87646406 724.24871397 -415.08813273 700.29863629 -408.625 680.3125 C-407.965 680.3125 -407.305 680.3125 -406.625 680.3125 C-406.4703125 678.394375 -406.4703125 678.394375 -406.3125 676.4375 C-405.74366692 671.17579406 -404.2875387 666.32102854 -402.625 661.3125 C-401.965 661.3125 -401.305 661.3125 -400.625 661.3125 C-400.521875 660.1575 -400.41875 659.0025 -400.3125 657.8125 C-399.76464887 653.30078481 -398.3475121 649.50644251 -396.625 645.3125 C-395.965 645.3125 -395.305 645.3125 -394.625 645.3125 C-394.50769531 644.29285156 -394.39039063 643.27320313 -394.26953125 642.22265625 C-393.64869903 638.45627409 -392.66923333 635.30774963 -391.3125 631.75 C-389.08639383 625.72149861 -387.22184179 619.6695067 -385.51953125 613.46875 C-384.64398469 610.37948529 -383.65193258 607.35439877 -382.625 604.3125 C-381.84873889 601.85570168 -381.07763213 599.39774566 -380.3125 596.9375 C-380.0966626 596.2470459 -379.8808252 595.5565918 -379.65844727 594.84521484 C-378.53668927 591.25445166 -377.42437603 587.6611356 -376.328125 584.0625 C-374.06810564 576.67270572 -371.67575041 569.42021324 -368.625 562.3125 C-368.09752056 561.0729744 -367.57018826 559.83338618 -367.04296875 558.59375 C-365.57995207 555.16248992 -364.1050872 551.73643505 -362.625 548.3125 C-363.57753662 548.75118408 -363.57753662 548.75118408 -364.54931641 549.19873047 C-367.44807775 550.53153684 -370.34900836 551.85955553 -373.25 553.1875 C-374.74853516 553.87779297 -374.74853516 553.87779297 -376.27734375 554.58203125 C-380.99975434 556.73995397 -385.63597438 558.83111696 -390.625 560.3125 C-390.625 560.9725 -390.625 561.6325 -390.625 562.3125 C-391.66398438 562.82039062 -392.70296875 563.32828125 -393.7734375 563.8515625 C-400.80808189 567.31439514 -407.72942795 570.8117563 -414.3984375 574.94921875 C-416.62618567 576.31322597 -418.89051147 577.56928456 -421.1875 578.8125 C-424.9225514 580.87165008 -428.46140448 583.12141214 -431.984375 585.5234375 C-434.02414915 586.90541466 -436.07428035 588.26030897 -438.140625 589.6015625 C-445.31280635 594.27987052 -452.06161221 599.08882565 -458.55078125 604.6953125 C-460.625 606.3125 -460.625 606.3125 -462.625 606.3125 C-462.625 606.9725 -462.625 607.6325 -462.625 608.3125 C-464.34765625 609.7578125 -464.34765625 609.7578125 -466.6875 611.4375 C-470.57223553 614.37680847 -473.7070058 617.41815513 -476.8125 621.15625 C-478.83491131 623.56222208 -480.97643011 625.83125646 -483.125 628.125 C-494.67212923 640.98563969 -500.55544226 656.06611083 -505.10205078 672.46679688 C-506.13946023 676.128242 -507.38575948 679.71585367 -508.625 683.3125 C-509.34555584 685.50071431 -510.06425853 687.68952158 -510.78125 689.87890625 C-511.99574307 693.38181914 -513.31594613 696.84414893 -514.625 700.3125 C-515.34413958 702.22902053 -516.06286068 704.14569812 -516.78125 706.0625 C-521.46875 718.5625 -521.46875 718.5625 -522.59155273 721.55224609 C-523.22780586 723.25162663 -523.86084419 724.95221987 -524.48852539 726.65478516 C-525.87505227 730.40791661 -527.36300435 734.06562402 -529.0625 737.6875 C-530.63688764 741.09246262 -532.10568798 744.49368075 -533.4375 748 C-535.51447343 753.32011637 -538.09327878 758.36328055 -540.7199707 763.4284668 C-543.0448793 767.95997236 -544.91013901 772.51516303 -546.625 777.3125 C-547.285 777.3125 -547.945 777.3125 -548.625 777.3125 C-548.78355469 777.9415625 -548.94210937 778.570625 -549.10546875 779.21875 C-550.50797492 784.36385549 -552.1441322 788.57502391 -555.109375 792.99609375 C-557.05373281 795.96775401 -558.80891177 799.03875087 -560.5625 802.125 C-561.07985718 803.03282227 -561.07985718 803.03282227 -561.60766602 803.95898438 C-563.6966866 807.63825774 -565.73836742 811.34018775 -567.75 815.0625 C-570.09023833 819.38877843 -572.58324967 823.59778434 -575.13671875 827.80078125 C-576.63841613 830.33514192 -578.0455184 832.90393513 -579.4375 835.5 C-584.92407975 845.65448137 -590.99301306 855.48585328 -597.3125 865.140625 C-598.76384719 867.36233855 -598.76384719 867.36233855 -599.625 870.3125 C-600.285 870.3125 -600.945 870.3125 -601.625 870.3125 C-601.85832031 871.14394531 -602.09164063 871.97539063 -602.33203125 872.83203125 C-603.85982275 876.94460596 -605.94064307 880.32999345 -608.3125 884 C-608.76455811 884.70987061 -609.21661621 885.41974121 -609.68237305 886.15112305 C-610.58618963 887.56947673 -611.49246167 888.98626918 -612.40136719 890.40136719 C-613.40654156 891.97130035 -614.39678386 893.55078432 -615.3828125 895.1328125 C-620.70067409 903.6574248 -626.44294416 911.90107116 -632.14794922 920.16894531 C-633.39691359 921.98149195 -634.63968993 923.79797399 -635.87890625 925.6171875 C-636.47574219 926.48601563 -637.07257813 927.35484375 -637.6875 928.25 C-638.17347656 928.96027344 -638.65945313 929.67054688 -639.16015625 930.40234375 C-640.81826537 932.56451804 -642.69607093 934.39133322 -644.625 936.3125 C-645.285 937.3025 -645.945 938.2925 -646.625 939.3125 C-647.285 939.3125 -647.945 939.3125 -648.625 939.3125 C-648.91375 940.075625 -649.2025 940.83875 -649.5 941.625 C-650.625 944.3125 -650.625 944.3125 -652.625 947.3125 C-653.285 947.3125 -653.945 947.3125 -654.625 947.3125 C-655.058125 948.2096875 -655.058125 948.2096875 -655.5 949.125 C-656.625 951.3125 -656.625 951.3125 -658.625 954.3125 C-659.285 954.3125 -659.945 954.3125 -660.625 954.3125 C-660.83125 954.993125 -661.0375 955.67375 -661.25 956.375 C-663.09370117 960.31381613 -665.73448204 963.10008345 -668.625 966.3125 C-669.2334375 967.03566406 -669.841875 967.75882813 -670.46875 968.50390625 C-671.0771875 969.22449219 -671.685625 969.94507813 -672.3125 970.6875 C-673.15361328 971.68910156 -673.15361328 971.68910156 -674.01171875 972.7109375 C-675.625 974.3125 -675.625 974.3125 -678.625 975.3125 C-678.91375 975.89 -679.2025 976.4675 -679.5 977.0625 C-681.01612594 980.09475188 -683.19717442 981.95029133 -685.625 984.3125 C-687.3137844 985.97786521 -689.00128742 987.64453083 -690.6875 989.3125 C-691.52410156 990.1375 -692.36070312 990.9625 -693.22265625 991.8125 C-695.68180868 994.28395779 -695.68180868 994.28395779 -697.80859375 997.125 C-698.40800781 997.846875 -699.00742187 998.56875 -699.625 999.3125 C-700.285 999.3125 -700.945 999.3125 -701.625 999.3125 C-701.88667969 999.90160156 -702.14835937 1000.49070312 -702.41796875 1001.09765625 C-703.6892275 1003.43035434 -705.02730531 1004.91604368 -706.9375 1006.75 C-707.51113281 1007.30558594 -708.08476563 1007.86117187 -708.67578125 1008.43359375 C-709.31902344 1009.05363281 -709.96226562 1009.67367187 -710.625 1010.3125 C-711.7078125 1011.43398437 -711.7078125 1011.43398437 -712.8125 1012.578125 C-716.4776549 1016.14147004 -720.3684181 1019.37673577 -724.3125 1022.625 C-725.08400391 1023.27017578 -725.85550781 1023.91535156 -726.65039062 1024.58007812 C-727.75737305 1025.49370117 -727.75737305 1025.49370117 -728.88671875 1026.42578125 C-729.89158325 1027.25783081 -729.89158325 1027.25783081 -730.91674805 1028.10668945 C-732.625 1029.3125 -732.625 1029.3125 -734.625 1029.3125 C-734.625 1029.9725 -734.625 1030.6325 -734.625 1031.3125 C-735.96337891 1032.55834961 -735.96337891 1032.55834961 -737.8515625 1033.96484375 C-738.54701172 1034.48876709 -739.24246094 1035.01269043 -739.95898438 1035.55249023 C-740.71501953 1036.11266846 -741.47105469 1036.67284668 -742.25 1037.25 C-743.81580138 1038.42615571 -745.38089512 1039.60325404 -746.9453125 1040.78125 C-747.73325195 1041.37292969 -748.52119141 1041.96460938 -749.33300781 1042.57421875 C-752.04304735 1044.62955338 -754.71051784 1046.73368353 -757.37060547 1048.85302734 C-767.39472817 1056.8349408 -776.71369299 1062.4553337 -788.625 1067.3125 C-789.55828125 1067.73402344 -790.4915625 1068.15554688 -791.453125 1068.58984375 C-808.87792736 1076.38121966 -827.94651027 1079.93915613 -846.625 1083.3125 C-847.55343216 1083.48336624 -848.48186432 1083.65423248 -849.43843079 1083.83027649 C-852.4242561 1084.28212143 -855.23677122 1084.46432377 -858.25292969 1084.50537109 C-859.33556091 1084.52143402 -860.41819214 1084.53749695 -861.53363037 1084.55404663 C-866.5030415 1084.5991556 -871.47232548 1084.63961627 -876.44189453 1084.66259766 C-879.04257209 1084.67906377 -881.64320618 1084.70622777 -884.24365234 1084.74462891 C-899.58906247 1084.96957756 -913.12311771 1084.52104813 -927.625 1079.3125 C-929.39214826 1078.77465925 -931.16127137 1078.2431935 -932.93359375 1077.72265625 C-952.21131441 1071.55200479 -969.48534841 1060.84945523 -982.625 1045.3125 C-983.470625 1044.36375 -984.31625 1043.415 -985.1875 1042.4375 C-995.3326512 1029.43089589 -1001.11986119 1014.95610408 -1001.0234375 998.4609375 C-1001.02630768 997.36206207 -1001.02917786 996.26318665 -1001.03213501 995.13101196 C-1001.0341643 992.82333863 -1001.02871451 990.51564764 -1001.01611328 988.20800781 C-1001.0000131 984.69036246 -1001.01601746 981.17386059 -1001.03515625 977.65625 C-1001.03317422 975.40364332 -1001.02933138 973.15103734 -1001.0234375 970.8984375 C-1001.02951019 969.85553558 -1001.03558289 968.81263367 -1001.0418396 967.73812866 C-1000.98237821 961.52457134 -1000.13751408 956.99873674 -997.625 951.3125 C-997.14822197 949.93114495 -996.68028322 948.54661901 -996.23046875 947.15625 C-996.00045166 946.45209961 -995.77043457 945.74794922 -995.53344727 945.02246094 C-995.29553467 944.29317383 -995.05762207 943.56388672 -994.8125 942.8125 C-990.27831775 929.12921337 -985.38429551 916.06768823 -978.625 903.3125 C-978.16996094 902.42304687 -977.71492187 901.53359375 -977.24609375 900.6171875 C-974.87348589 896.10997633 -972.45368697 892.75831827 -968.625 889.3125 C-964.94109756 885.89173344 -962.66289152 882.92457029 -960.625 878.3125 C-959.965 878.3125 -959.305 878.3125 -958.625 878.3125 C-958.38136719 877.59578125 -958.13773438 876.8790625 -957.88671875 876.140625 C-956.46065033 872.9441125 -954.70142787 870.72777825 -952.4375 868.0625 C-948.82525472 863.76858907 -945.37500878 859.40293739 -942.03515625 854.89453125 C-941.33712891 854.11142578 -941.33712891 854.11142578 -940.625 853.3125 C-939.965 853.3125 -939.305 853.3125 -938.625 853.3125 C-938.21314453 852.42413452 -938.21314453 852.42413452 -937.79296875 851.51782227 C-936.67303023 849.40318919 -935.50803126 847.821353 -933.9375 846.02734375 C-933.40809814 845.41898682 -932.87869629 844.81062988 -932.33325195 844.18383789 C-931.76952881 843.54567139 -931.20580566 842.90750488 -930.625 842.25 C-930.0477417 841.59185303 -929.4704834 840.93370605 -928.87573242 840.25561523 C-927.13022368 838.27034277 -925.37785416 836.29128649 -923.625 834.3125 C-923.11146973 833.72758789 -922.59793945 833.14267578 -922.06884766 832.54003906 C-920.69802618 830.97929834 -919.31962343 829.42573209 -917.9375 827.875 C-917.14988281 826.98941406 -916.36226562 826.10382812 -915.55078125 825.19140625 C-913.625 823.3125 -913.625 823.3125 -911.625 823.3125 C-911.398125 822.755625 -911.17125 822.19875 -910.9375 821.625 C-909.24949964 818.65090412 -907.15823483 816.59241135 -904.625 814.3125 C-903.965 814.3125 -903.305 814.3125 -902.625 814.3125 C-902.295 813.3225 -901.965 812.3325 -901.625 811.3125 C-900.965 811.3125 -900.305 811.3125 -899.625 811.3125 C-899.23054687 810.42884766 -899.23054687 810.42884766 -898.828125 809.52734375 C-895.71214028 803.79109915 -889.74885014 799.24475709 -884.625 795.3125 C-883.965 795.3125 -883.305 795.3125 -882.625 795.3125 C-882.30789063 794.48105469 -882.30789063 794.48105469 -881.984375 793.6328125 C-880.15379284 790.50819813 -877.63411444 788.46023598 -874.875 786.1875 C-874.30225342 785.70958008 -873.72950684 785.23166016 -873.1394043 784.73925781 C-866.11424461 778.9559626 -858.66402955 773.80105892 -851.1875 768.625 C-844.65498439 764.08853082 -838.26258451 759.37385994 -831.86767578 754.64648438 C-825.93770825 750.26735984 -819.97138611 745.94588735 -813.95703125 741.68359375 C-811.64938917 740.04773646 -809.3576625 738.39211704 -807.07421875 736.72265625 C-800.70101822 732.08025538 -794.29984662 727.84474769 -787.42578125 723.95703125 C-783.8432253 721.85346632 -780.50013659 719.48417236 -777.125 717.06640625 C-773.67895749 714.64879205 -770.12666567 712.4157261 -766.55859375 710.18359375 C-764.9043435 709.12848607 -763.25942479 708.05714893 -761.65087891 706.93359375 C-756.05626765 703.05631178 -750.35633103 700.15295531 -744.125 697.4375 C-742.17535986 696.56995678 -740.22614525 695.70145669 -738.27734375 694.83203125 C-737.32069824 694.40744629 -736.36405273 693.98286133 -735.37841797 693.54541016 C-731.45703806 691.78951651 -727.56997363 689.96497262 -723.6875 688.125 C-723.00034912 687.80104248 -722.31319824 687.47708496 -721.60522461 687.14331055 C-718.35578714 685.61043978 -715.11198535 684.06680177 -711.875 682.5078125 C-705.2389255 679.33358025 -698.57152358 676.47205459 -691.6875 673.875 C-686.04734978 671.74380272 -680.65265318 669.42259626 -675.3125 666.625 C-667.80578778 662.70467618 -660.02340288 659.50473491 -652.1875 656.3125 C-643.64385349 652.8310207 -635.17542978 649.28662676 -626.87866211 645.24560547 C-620.93923054 642.38306906 -614.85617407 639.92007273 -608.75 637.4375 C-600.36697441 634.01209272 -592.32317832 630.2522265 -584.36914062 625.92675781 C-579.24414167 623.14028666 -574.05804775 620.60523937 -568.75 618.1875 C-562.57029855 615.34901739 -556.83679464 612.13438999 -551.1015625 608.4609375 C-546.12615088 605.31685666 -540.90823093 602.57726348 -535.71508789 599.81298828 C-531.75601152 597.6655302 -528.73561863 595.62846509 -525.625 592.3125 C-524.965 592.3125 -524.305 592.3125 -523.625 592.3125 C-523.625 591.6525 -523.625 590.9925 -523.625 590.3125 C-522.965 590.3125 -522.305 590.3125 -521.625 590.3125 C-521.625 589.6525 -521.625 588.9925 -521.625 588.3125 C-520.6865625 587.59707031 -519.748125 586.88164063 -518.78125 586.14453125 C-515.28593461 583.33535612 -514.19223494 580.26320755 -513.125 576 C-512.72284851 574.56915424 -512.3164685 573.13949138 -511.90625 571.7109375 C-511.596875 570.61797363 -511.596875 570.61797363 -511.28125 569.50292969 C-510.22617924 565.98131702 -508.93822895 562.55716078 -507.625 559.125 C-507.37322998 558.46322754 -507.12145996 557.80145508 -506.86206055 557.11962891 C-505.66449757 553.98718442 -504.45014121 550.86131507 -503.23828125 547.734375 C-501.13480177 542.30196552 -499.09997189 536.87935809 -497.296875 531.33984375 C-495.8423147 526.95079261 -494.14736857 522.64920072 -492.46484375 518.34375 C-490.37367428 512.97193853 -488.35388267 507.60493834 -486.5625 502.125 C-484.56423192 496.01784335 -482.20708682 490.09845448 -479.73046875 484.171875 C-476.98819758 477.49707027 -474.62231465 470.70038728 -472.26245117 463.88330078 C-471.97990479 463.06716309 -471.6973584 462.25102539 -471.40625 461.41015625 C-471.11886963 460.57871094 -470.83148926 459.74726563 -470.53540039 458.890625 C-469.58757716 456.20652382 -468.58869024 453.54439267 -467.58984375 450.87890625 C-465.58811281 445.39462609 -464.09419464 439.8492637 -462.6875 434.1875 C-460.92903994 427.27389634 -459.12048473 420.39327522 -457.0625 413.5625 C-454.98325331 406.65930056 -453.11269104 399.71352943 -451.32397461 392.72949219 C-450.50053673 389.53459441 -449.65295661 386.39604848 -448.60546875 383.265625 C-447.1751681 378.95762781 -446.17410365 374.56009623 -445.125 370.14648438 C-444.43356552 367.30241991 -443.72357941 364.55625298 -442.625 361.83984375 C-441.22168042 358.29317278 -440.45659331 354.65368261 -439.625 350.9375 C-438.4353845 345.67716896 -437.15149952 340.48837293 -435.625 335.3125 C-435.08437688 333.46361724 -434.54403993 331.6146508 -434.00390625 329.765625 C-433.09666625 326.66638247 -432.18890833 323.56729742 -431.27929688 320.46875 C-429.83390643 315.52745858 -428.41991012 310.58304338 -427.08984375 305.609375 C-426.00529058 301.5945185 -424.76832618 297.66810637 -423.42431641 293.73388672 C-421.74855581 288.6574684 -420.30878778 283.50652764 -418.8125 278.375 C-415.65002749 267.60246061 -412.28734032 256.92496344 -408.625 246.3125 C-407.965 246.3125 -407.305 246.3125 -406.625 246.3125 C-406.54765625 245.24515625 -406.4703125 244.1778125 -406.390625 243.078125 C-405.64075906 237.11590422 -403.45911138 231.66734323 -401.375 226.0625 C-400.99214844 225.00675781 -400.60929688 223.95101562 -400.21484375 222.86328125 C-396.42333611 212.50320854 -392.1478717 202.37160138 -387.625 192.3125 C-386.93182851 190.74890316 -386.23913274 189.18509535 -385.546875 187.62109375 C-378.3256278 171.38651327 -370.47590004 155.71962229 -361.625 140.3125 C-360.965 140.3125 -360.305 140.3125 -359.625 140.3125 C-359.53089844 139.74660156 -359.43679688 139.18070313 -359.33984375 138.59765625 C-358.4546306 135.76787651 -357.05520866 134.04483538 -355.1875 131.75 C-353.21372421 129.30647382 -351.36987653 126.92981479 -349.625 124.3125 C-348.965 124.3125 -348.305 124.3125 -347.625 124.3125 C-347.37234375 123.60351562 -347.1196875 122.89453125 -346.859375 122.1640625 C-345.5043314 119.03374025 -343.82170734 116.48683498 -341.875 113.6875 C-339.25127271 109.83654543 -336.87444259 106.02069797 -334.75 101.875 C-332.3619927 97.36796424 -329.59204525 93.35199842 -326.5 89.3125 C-325.86989014 88.48407593 -325.86989014 88.48407593 -325.22705078 87.63891602 C-322.92888404 84.70509581 -320.64071927 82.47510385 -317.625 80.3125 C-348.57645515 79.52281409 -379.51258801 79.12407643 -410.47412109 79.12719727 C-414.93672667 79.12727935 -419.39923137 79.12017597 -423.86181641 79.10668945 C-469.92913802 78.81421235 -469.92913802 78.81421235 -515.6875 83.625 C-517.08097249 83.84888206 -518.47444582 84.07275888 -519.86791992 84.29663086 C-523.79291663 84.93663261 -527.7092747 85.61801287 -531.625 86.3125 C-532.61693359 86.48587891 -533.60886719 86.65925781 -534.63085938 86.83789062 C-561.46852277 91.71569911 -588.39113363 101.78300584 -612.875 113.625 C-614.37848999 114.35046021 -614.37848999 114.35046021 -615.91235352 115.09057617 C-617.91200073 116.05728879 -619.91080827 117.02574059 -621.90869141 117.99609375 C-624.20949671 119.1111344 -626.51540103 120.2142023 -628.82421875 121.3125 C-647.85123306 130.47211302 -665.92254234 141.7413095 -683.4375 153.5 C-684.05302734 153.91185547 -684.66855469 154.32371094 -685.30273438 154.74804688 C-685.91052734 155.15474609 -686.51832031 155.56144531 -687.14453125 155.98046875 C-687.7267041 156.36895996 -688.30887695 156.75745117 -688.90869141 157.15771484 C-690.05746117 157.93064244 -691.20038239 158.71233087 -692.33740234 159.50244141 C-696.41476648 162.3125 -696.41476648 162.3125 -698.625 162.3125 C-698.625 162.9725 -698.625 163.6325 -698.625 164.3125 C-701.02969576 166.10470738 -703.44023348 167.78326687 -705.9375 169.4375 C-707.4223209 170.44465543 -708.90669504 171.45246982 -710.390625 172.4609375 C-712.79027313 174.08085911 -715.19549102 175.69033829 -717.609375 177.2890625 C-724.38428965 181.94938258 -730.0018356 187.46981589 -735.67602539 193.38574219 C-736.28953857 194.02157227 -736.90305176 194.65740234 -737.53515625 195.3125 C-738.08308838 195.89 -738.63102051 196.4675 -739.19555664 197.0625 C-740.625 198.3125 -740.625 198.3125 -742.625 198.3125 C-742.84671875 199.01761719 -743.0684375 199.72273437 -743.296875 200.44921875 C-744.91917961 203.94671663 -747.22435857 206.39449073 -749.875 209.125 C-753.7552849 213.21617683 -757.3091849 217.32027142 -760.50390625 221.984375 C-760.87386719 222.42265625 -761.24382812 222.8609375 -761.625 223.3125 C-762.285 223.3125 -762.945 223.3125 -763.625 223.3125 C-763.955 224.3025 -764.285 225.2925 -764.625 226.3125 C-765.285 226.3125 -765.945 226.3125 -766.625 226.3125 C-766.87507812 226.88871094 -767.12515625 227.46492187 -767.3828125 228.05859375 C-768.79442803 230.6199213 -770.44150389 232.29765319 -772.5 234.375 C-776.93884109 239.20232961 -780.45085439 244.39007631 -783.9375 249.9375 C-784.44071777 250.73679932 -784.94393555 251.53609863 -785.46240234 252.35961914 C-788.47042072 257.22494083 -791.13382676 262.16722187 -793.625 267.3125 C-794.28882597 268.62383772 -794.95550903 269.93373292 -795.625 271.2421875 C-798.92503281 277.73758034 -802.12066791 284.17936331 -804.71484375 290.99609375 C-805.67664632 293.44394322 -806.75963419 295.80584429 -807.875 298.1875 C-808.79529463 300.22753391 -809.71138891 302.26946419 -810.625 304.3125 C-810.93518066 304.98474609 -811.24536133 305.65699219 -811.56494141 306.34960938 C-825.88860623 337.73376985 -828.49997247 382.41322054 -816.60546875 415.265625 C-815.94960806 416.94959599 -815.28954957 418.63193896 -814.625 420.3125 C-813.97370989 422.12304636 -813.3272486 423.93534337 -812.6875 425.75 C-799.47082956 461.8653204 -777.53766902 487.82156226 -742.625 504.3125 C-718.02120055 514.67994866 -687.65733383 510.07977831 -663.625 500.3125 C-649.73484636 494.48673789 -649.73484636 494.48673789 -639.625 484.3125 C-638.965 484.3125 -638.305 484.3125 -637.625 484.3125 C-637.625 483.6525 -637.625 482.9925 -637.625 482.3125 C-633.32267442 477.54505814 -633.32267442 477.54505814 -629.625 476.3125 C-628.90187637 474.66954095 -628.24100857 472.99854735 -627.625 471.3125 C-626.76636509 469.97536885 -625.86835654 468.6628974 -624.9375 467.375 C-620.15161573 460.36501865 -616.70202926 452.61853627 -613.0234375 444.9921875 C-606.08687613 430.79891578 -606.08687613 430.79891578 -600.3125 427.3125 C-596.04650754 426.15562069 -592.82483698 425.84211682 -588.625 427.3125 C-584.98034248 430.33679028 -582.80382428 432.42973584 -582.3515625 437.19140625 C-582.01956738 449.23261396 -584.10274465 460.97351744 -590.625 471.3125 C-591.25916995 472.56898787 -591.88186056 473.83130287 -592.49609375 475.09765625 C-594.65586541 479.46957634 -597.11443094 483.61071499 -599.6875 487.75 C-600.12126953 488.46865234 -600.55503906 489.18730469 -601.00195312 489.92773438 C-601.42541016 490.61029297 -601.84886719 491.29285156 -602.28515625 491.99609375 C-602.66293213 492.61025146 -603.04070801 493.22440918 -603.42993164 493.85717773 C-604.625 495.3125 -604.625 495.3125 -607.625 496.3125 C-608.33843699 497.62140408 -608.99938246 498.95942021 -609.625 500.3125 C-619.18656808 513.07848549 -631.4980468 517.74474802 -646.27661133 522.50805664 C-649.59636463 523.58885713 -652.74743453 524.76426182 -655.875 526.3125 C-660.38374538 528.41316546 -665.08321372 529.65918903 -669.875 530.9375 C-670.6371582 531.14375 -671.39931641 531.35 -672.18457031 531.5625 C-684.20222607 534.66383052 -695.98286812 535.69351948 -708.375 535.625 C-709.07810303 535.62284485 -709.78120605 535.6206897 -710.50561523 535.61846924 C-729.29683648 535.52612515 -747.35508023 533.06153997 -763.4309082 522.67773438 C-766.73107126 520.62426694 -770.16280042 518.83629531 -773.59350586 517.01220703 C-782.4205985 512.31867009 -790.86166324 507.65518918 -798.625 501.3125 C-799.27082031 500.80460937 -799.91664063 500.29671875 -800.58203125 499.7734375 C-812.33711645 490.19521993 -823.06612235 475.99492688 -829.625 462.3125 C-829.625 461.3225 -829.625 460.3325 -829.625 459.3125 C-830.285 459.3125 -830.945 459.3125 -831.625 459.3125 C-836.06526643 450.11942411 -840.42060979 441.02448444 -843.625 431.3125 C-843.96204956 430.33966064 -843.96204956 430.33966064 -844.3059082 429.34716797 C-857.82286455 389.91443744 -857.74505631 345.44166816 -843.38037109 306.38183594 C-842.2428693 303.26565455 -841.1580511 300.13113343 -840.0625 297 C-837.02823702 288.52934918 -833.70363405 280.2313646 -829.5859375 272.2265625 C-827.79201427 268.65330078 -826.23467901 264.97140138 -824.625 261.3125 C-817.8552343 246.0747901 -810.37030932 231.86135831 -800.625 218.3125 C-799.97273437 217.39082031 -799.32046875 216.46914062 -798.6484375 215.51953125 C-794.98834426 210.39681388 -791.21823332 205.5228536 -786.97265625 200.87109375 C-785.53482049 199.33774324 -785.53482049 199.33774324 -784.625 197.3125 C-783.965 197.3125 -783.305 197.3125 -782.625 197.3125 C-782.33625 196.714375 -782.0475 196.11625 -781.75 195.5 C-780.625 193.3125 -780.625 193.3125 -778.625 190.3125 C-777.965 190.3125 -777.305 190.3125 -776.625 190.3125 C-776.398125 189.735 -776.17125 189.1575 -775.9375 188.5625 C-774.29011725 185.73841529 -772.19045162 184.3148037 -769.625 182.3125 C-769.068125 181.57 -768.51125 180.8275 -767.9375 180.0625 C-767.504375 179.485 -767.07125 178.9075 -766.625 178.3125 C-765.965 178.3125 -765.305 178.3125 -764.625 178.3125 C-764.35945312 177.72082031 -764.09390625 177.12914062 -763.8203125 176.51953125 C-760.67511468 170.71222155 -754.66308673 166.37991911 -749.71484375 162.125 C-748.29492358 160.89351783 -746.89165262 159.64262836 -745.50390625 158.375 C-740.72455404 154.01309566 -735.76750534 150.12176524 -730.49609375 146.37109375 C-727.57894565 144.27947872 -724.72756066 142.11616713 -721.875 139.9375 C-715.5933006 135.21204097 -709.09030127 130.88075602 -702.52197266 126.56982422 C-700.69297505 125.35755425 -698.88144134 124.12334678 -697.07421875 122.87890625 C-682.53246984 112.91056236 -667.06064689 104.35101925 -651.41552734 96.24365234 C-650.20985866 95.61665202 -649.00709148 94.9840442 -647.80712891 94.34619141 C-631.72548032 85.80241769 -614.63018949 79.54969656 -597.43359375 73.640625 C-595.04826461 72.8195339 -592.70282312 71.95637925 -590.34765625 71.046875 C-563.35265019 60.70696965 -533.73399097 56.80752652 -505.0625 54.5 C-503.91003281 54.40484604 -503.91003281 54.40484604 -502.73428345 54.30776978 C-478.72279039 52.37187313 -454.87770795 53.71850487 -430.87310791 55.0501709 C-427.55693486 55.2324717 -424.24042549 55.40816212 -420.92389679 55.58385372 C-404.17562784 56.47318319 -387.45757137 57.49412791 -370.74316406 58.89746094 C-333.82261152 61.96811796 -304.96742432 59.27348982 -272.8359375 39.63476562 C-270.16826628 38.03934742 -267.41970117 36.67103529 -264.625 35.3125 C-262.90766454 34.36240006 -261.19041224 33.41214078 -259.47558594 32.45751953 C-245.74318093 24.88839181 -228.37546641 17.05893541 -212.36328125 20.84765625 C-207.50481356 22.49109356 -204.20500324 24.62763943 -201.546875 29.14453125 C-199.62333563 33.66810902 -199.99503162 38.71087485 -201.13671875 43.42578125 C-203.90976301 50.17577679 -209.88595836 54.15690861 -215.625 58.3125 C-216.38683594 58.88226563 -217.14867187 59.45203125 -217.93359375 60.0390625 C-227.76532204 66.68442478 -240.06700905 68.75005643 -251.56933594 70.72485352 C-267.5698935 73.48633408 -280.17676586 78.60080367 -292.625 89.3125 C-293.77162109 90.29089844 -293.77162109 90.29089844 -294.94140625 91.2890625 C-311.20561132 106.36036523 -321.04512131 127.78221044 -330.64257812 147.39160156 C-332.08006853 150.30340613 -333.51258663 153.1308246 -335.22265625 155.89453125 C-336.92609342 158.83165551 -337.9655029 161.78813636 -339.0625 165 C-340.50369931 169.14291027 -341.96228826 173.25332924 -343.625 177.3125 C-347.72755364 187.43760239 -351.13471185 197.77119014 -354.38745117 208.19287109 C-355.97396529 213.27319524 -357.61194972 218.33174271 -359.3125 223.375 C-360.96278092 228.27823849 -362.52680068 233.1899625 -363.94921875 238.1640625 C-364.625 240.3125 -364.625 240.3125 -365.5859375 242.6328125 C-366.84942752 245.89128675 -367.69529979 249.17728474 -368.5625 252.5625 C-369.81643096 257.45638438 -371.23176945 262.22124577 -372.85522461 267.00439453 C-374.13817083 270.8511987 -375.2832834 274.73801735 -376.4375 278.625 C-376.69611816 279.48963867 -376.95473633 280.35427734 -377.22119141 281.24511719 C-378.51291273 285.5654595 -379.79544931 289.8883491 -381.06640625 294.21484375 C-387.84235191 317.19554927 -395.44917141 339.60093946 -405.625 361.3125 C-406.285 361.3125 -406.945 361.3125 -407.625 361.3125 C-407.728125 362.22 -407.83125 363.1275 -407.9375 364.0625 C-408.85990787 370.53253238 -410.48541254 376.98490462 -412.6015625 383.1640625 C-413.82988787 386.94280392 -414.69517319 390.75065331 -415.5625 394.625 C-416.78162489 399.93961373 -418.0772094 405.13518476 -419.91015625 410.27734375 C-420.72680459 412.60233712 -421.42852455 414.94881389 -422.125 417.3125 C-423.29168078 421.25004762 -424.56004386 425.14117142 -425.875 429.03125 C-426.66910441 431.4466509 -427.40269166 433.87470935 -428.125 436.3125 C-429.29168078 440.25004762 -430.56004386 444.14117142 -431.875 448.03125 C-432.66910441 450.4466509 -433.40269166 452.87470935 -434.125 455.3125 C-435.52100428 460.01674359 -437.05381767 464.66441895 -438.625 469.3125 C-438.8725 470.0653125 -439.12 470.818125 -439.375 471.59375 C-439.6225 472.3465625 -439.87 473.099375 -440.125 473.875 C-440.3415625 474.53628906 -440.558125 475.19757813 -440.78125 475.87890625 C-441.46923614 477.86323665 -442.20958365 479.8293497 -442.96484375 481.7890625 C-445.53624545 488.60351523 -447.59270778 495.59956818 -449.75195312 502.55273438 C-450.26338867 504.17598633 -450.26338867 504.17598633 -450.78515625 505.83203125 C-451.09074463 506.81276611 -451.39633301 507.79350098 -451.71118164 508.80395508 C-452.625 511.3125 -452.625 511.3125 -454.625 514.3125 C-455.32122498 516.50546776 -455.96018133 518.71690345 -456.5625 520.9375 C-457.68583258 524.99397874 -458.81527657 529.02055205 -460.1875 533 C-461.61644741 537.16258592 -462.76286211 541.3806182 -463.87890625 545.63671875 C-464.39571934 547.49021071 -464.96753093 549.3289081 -465.58203125 551.15234375 C-466.78534772 554.79834759 -467.77855539 558.47442284 -468.75 562.1875 C-468.93175781 562.87585938 -469.11351562 563.56421875 -469.30078125 564.2734375 C-469.74391226 565.9526708 -470.18470044 567.63252206 -470.625 569.3125 C-467.4538482 567.92670666 -464.28900412 566.5270271 -461.125 565.125 C-460.238125 564.73763672 -459.35125 564.35027344 -458.4375 563.95117188 C-453.63877019 561.81644281 -449.20561076 559.51339069 -444.80517578 556.65405273 C-439.1244931 553.15849267 -433.03462411 550.31587417 -427.08789062 547.3046875 C-420.92529154 544.14630847 -415.0381036 540.77459148 -409.2355957 536.99560547 C-405.98027461 534.8968321 -402.65038866 532.94498185 -399.30810547 530.98901367 C-390.20644365 525.65276944 -381.63749963 519.90738624 -373.23974609 513.53027344 C-370.79399334 511.68578981 -368.30967066 509.89902423 -365.8125 508.125 C-365.04292969 507.57457031 -364.27335938 507.02414062 -363.48046875 506.45703125 C-361.625 505.3125 -361.625 505.3125 -359.625 505.3125 C-359.625 504.6525 -359.625 503.9925 -359.625 503.3125 C-358.965 503.3125 -358.305 503.3125 -357.625 503.3125 C-357.625 502.6525 -357.625 501.9925 -357.625 501.3125 C-356.89152344 500.631875 -356.15804687 499.95125 -355.40234375 499.25 C-351.86937746 495.84760797 -350.1666847 491.73725674 -348.1875 487.3125 C-347.61044312 486.05796021 -347.61044312 486.05796021 -347.02172852 484.77807617 C-346.24712206 483.09165466 -345.47711111 481.40311408 -344.71191406 479.71240234 C-343.72267873 477.52817428 -342.72090696 475.35048219 -341.7109375 473.17578125 C-340.3410066 470.22491113 -338.97924303 467.27059165 -337.625 464.3125 C-336.965 464.3125 -336.305 464.3125 -335.625 464.3125 C-335.50382813 463.58417969 -335.38265625 462.85585938 -335.2578125 462.10546875 C-334.62995028 459.33434847 -333.73952586 457.17382636 -332.5 454.625 C-323.20933451 434.55290321 -316.59471725 413.31122298 -311.484375 391.81640625 C-310.63190358 388.34064779 -309.6485434 384.92887038 -308.625 381.5 C-306.6877014 374.884087 -305.26911764 368.20183643 -303.93164062 361.4440918 C-302.72338285 355.41088285 -302.72338285 355.41088285 -301.625 354.3125 C-301.10454632 351.64777715 -300.63064038 348.99019333 -300.1875 346.3125 C-297.60259456 331.21269721 -297.60259456 331.21269721 -295.6875 325.53125 C-294.13692074 320.83390695 -292.95845952 316.04983102 -291.72265625 311.26171875 C-284.32301032 283.81531962 -272.10108797 257.11364698 -259.73095703 231.60546875 C-258.16613648 228.36114322 -256.63415561 225.10161454 -255.09985352 221.84277344 C-251.37969457 213.94456578 -247.58545974 206.09363855 -243.625 198.3125 C-242.965 198.3125 -242.305 198.3125 -241.625 198.3125 C-241.51542969 197.59312256 -241.40585937 196.87374512 -241.29296875 196.13256836 C-240.57359461 193.0954738 -239.47849527 190.89952343 -237.9375 188.19140625 C-237.39738281 187.22992676 -236.85726562 186.26844727 -236.30078125 185.27783203 C-235.47126953 183.80999268 -235.47126953 183.80999268 -234.625 182.3125 C-233.62110989 180.46956163 -232.62103392 178.6245399 -231.625 176.77734375 C-230.625 174.93489583 -229.625 173.09244792 -228.625 171.25 C-228.13 170.33412109 -227.635 169.41824219 -227.125 168.47460938 C-223.20887492 161.26955112 -219.17593774 154.13890662 -214.625 147.3125 C-213.965 147.3125 -213.305 147.3125 -212.625 147.3125 C-212.36976563 146.43980469 -212.11453125 145.56710938 -211.8515625 144.66796875 C-206.46642711 129.93602195 -193.39107463 116.53505034 -183.625 104.3125 C-183.19977051 103.77995605 -182.77454102 103.24741211 -182.33642578 102.69873047 C-178.29451757 97.65311624 -174.23679906 92.84892047 -169.625 88.3125 C-168.6088509 87.27652767 -167.59460696 86.23868404 -166.58203125 85.19921875 C-165.53389967 84.13276777 -164.48572214 83.06636196 -163.4375 82 C-162.90447266 81.45021484 -162.37144531 80.90042969 -161.82226562 80.33398438 C-160.46075044 78.95534322 -159.04659498 77.62910273 -157.625 76.3125 C-156.965 76.3125 -156.305 76.3125 -155.625 76.3125 C-155.625 75.6525 -155.625 74.9925 -155.625 74.3125 C-151.32267442 69.54505814 -151.32267442 69.54505814 -147.625 68.3125 C-146.51663577 66.42933841 -146.51663577 66.42933841 -145.625 64.3125 C-144.965 63.3225 -144.305 62.3325 -143.625 61.3125 C-142.965 61.3125 -142.305 61.3125 -141.625 61.3125 C-141.35171875 60.71953125 -141.0784375 60.1265625 -140.796875 59.515625 C-133.97845624 46.69699772 -114.85946536 40.2070877 -102.4375 33.8125 C-101.71743774 33.44087738 -100.99737549 33.06925476 -100.25549316 32.68637085 C-89.84232762 27.32390496 -79.37660566 22.39148261 -68.48144531 18.07714844 C-65.67867561 16.92271988 -62.97274333 15.58035307 -60.25 14.25 C-52.24370984 10.49257227 -43.81670757 7.81853849 -35.38037109 5.20092773 C-33.4913517 4.591842 -31.61897198 3.92933709 -29.76416016 3.22290039 C-19.82736102 -0.34470299 -10.40561999 -0.17865843 0 0 Z M-54.37109375 40.20703125 C-57.33001327 42.12162623 -60.32387645 43.93390974 -63.35888672 45.72290039 C-69.05561939 49.08242069 -74.58178922 52.55950097 -79.953125 56.42578125 C-83.99137922 59.2773555 -88.13084449 61.97631696 -92.2734375 64.67358398 C-96.29288459 67.32096716 -100.06277706 70.06716193 -103.625 73.3125 C-103.625 73.9725 -103.625 74.6325 -103.625 75.3125 C-104.223125 75.60125 -104.82125 75.89 -105.4375 76.1875 C-107.81827792 77.35992026 -107.81827792 77.35992026 -110.625 79.3125 C-110.625 79.9725 -110.625 80.6325 -110.625 81.3125 C-112.275 81.9725 -113.925 82.6325 -115.625 83.3125 C-115.625 83.9725 -115.625 84.6325 -115.625 85.3125 C-116.49705078 85.69535156 -116.49705078 85.69535156 -117.38671875 86.0859375 C-129.21146608 92.56581649 -139.17217018 108.24879483 -146.265625 119.3671875 C-147.625 121.3125 -147.625 121.3125 -149.06811523 122.72119141 C-150.61752713 124.3048619 -151.72335351 125.84321134 -152.89453125 127.71875 C-153.30533936 128.37456055 -153.71614746 129.03037109 -154.1394043 129.70605469 C-154.56777588 130.40118164 -154.99614746 131.09630859 -155.4375 131.8125 C-155.88327393 132.53083008 -156.32904785 133.24916016 -156.78833008 133.98925781 C-159.75242965 138.80114271 -162.5503877 143.67414017 -165.19140625 148.671875 C-166.78725899 151.61137487 -168.51577405 154.45267709 -170.25 157.3125 C-172.96601639 161.93449281 -174.95437716 166.45283225 -176.6640625 171.5234375 C-179.89047071 180.8878906 -183.93141929 190.2379953 -188.5625 199 C-191.00519349 203.78959507 -192.63969035 208.85769397 -194.40625 213.92578125 C-195.65206662 217.38771397 -197.05833818 220.70859485 -198.59765625 224.046875 C-199.81682869 226.73554426 -200.93900219 229.45750531 -202.0625 232.1875 C-203.69818298 236.14123677 -205.39797099 240.05103823 -207.1875 243.9375 C-209.1236649 248.15363477 -210.89958444 252.40587129 -212.59765625 256.72265625 C-214.53801125 261.61412152 -216.59322677 266.45847642 -218.625 271.3125 C-219.45870215 273.31234629 -220.2920375 275.31234553 -221.125 277.3125 C-226.125 289.3125 -226.125 289.3125 -227.37109375 292.30078125 C-228.21965923 294.3389245 -229.06594949 296.37801625 -229.91015625 298.41796875 C-231.76262293 302.88768194 -233.62337818 307.34482427 -235.625 311.75 C-238.20946912 317.50489076 -240.39589288 323.41324683 -242.625 329.3125 C-242.91503906 330.05757813 -243.20507812 330.80265625 -243.50390625 331.5703125 C-245.18976717 335.930602 -246.56466342 340.34370031 -247.8828125 344.828125 C-249.35460868 349.75476906 -251.03868299 354.61239082 -252.71484375 359.47265625 C-257.45477644 373.38958323 -261.61638725 387.52589583 -264.984375 401.83984375 C-265.44649681 403.62352123 -265.98820531 405.38723046 -266.578125 407.1328125 C-267.78437075 410.79655893 -268.71778885 414.50421022 -269.625 418.25 C-270.85630515 423.30508483 -272.17620082 428.31385422 -273.625 433.3125 C-274.20123434 435.37120505 -274.76449036 437.43360267 -275.3125 439.5 C-275.58449219 440.50417969 -275.85648438 441.50835937 -276.13671875 442.54296875 C-276.61543358 445.25823924 -276.53674668 446.7485949 -275.625 449.3125 C-274.84576172 448.31669922 -274.84576172 448.31669922 -274.05078125 447.30078125 C-267.6557727 439.20358928 -267.6557727 439.20358928 -264.6875 436.375 C-262.40605168 434.40101102 -262.40605168 434.40101102 -261.625 431.3125 C-260.965 431.3125 -260.305 431.3125 -259.625 431.3125 C-258.2709068 429.32649663 -256.94042376 427.32432457 -255.625 425.3125 C-254.31370078 423.95749081 -252.97808313 422.62578657 -251.625 421.3125 C-245.35851861 414.33260381 -239.17526763 407.07156466 -233.8125 399.375 C-231.88577155 396.67758017 -229.9549385 394.6424385 -227.625 392.3125 C-221.63261343 385.34985854 -221.63261343 385.34985854 -216.3125 377.875 C-214.625 375.3125 -214.625 375.3125 -212.7734375 373.5 C-210.3958935 371.07922793 -208.51880209 368.52048562 -206.5625 365.75 C-204.40500077 362.69802892 -202.33724826 359.88445956 -199.625 357.3125 C-197.24756578 354.64378598 -197.24756578 354.64378598 -196.625 351.3125 C-195.635 350.9825 -194.645 350.6525 -193.625 350.3125 C-191.72129035 348.06787814 -191.72129035 348.06787814 -189.9375 345.375 C-189.31488281 344.47910156 -188.69226563 343.58320313 -188.05078125 342.66015625 C-186.45197018 340.48537612 -186.45197018 340.48537612 -186.625 338.3125 C-185.965 338.3125 -185.305 338.3125 -184.625 338.3125 C-183.21546416 336.84224943 -183.21546416 336.84224943 -181.75 334.8125 C-181.12867188 333.99007813 -180.50734375 333.16765625 -179.8671875 332.3203125 C-179.12726563 331.32773437 -178.38734375 330.33515625 -177.625 329.3125 C-176.71155823 328.1010942 -175.79745441 326.89018742 -174.8828125 325.6796875 C-168.51427002 317.23629722 -162.23585375 308.72849646 -155.99707031 300.18896484 C-154.11800583 297.61912684 -152.23392757 295.05298279 -150.34985352 292.48681641 C-148.51754258 289.99031255 -146.68774881 287.49196855 -144.85791016 284.99365234 C-143.7552754 283.49013889 -142.6493417 281.98904606 -141.54296875 280.48828125 C-137.5677267 275.07191275 -133.69727537 269.58743682 -129.875 264.0625 C-129.41480469 263.40064697 -128.95460938 262.73879395 -128.48046875 262.05688477 C-126.33695162 258.94120763 -124.31509985 255.82621471 -122.484375 252.515625 C-120.92204851 249.82422222 -119.76764987 248.41860076 -117.625 246.3125 C-116.66069751 245.08503669 -115.72206351 243.83713868 -114.8046875 242.57421875 C-114.27367432 241.84323975 -113.74266113 241.11226074 -113.19555664 240.35913086 C-112.63602295 239.58061768 -112.07648926 238.80210449 -111.5 238 C-110.9217749 237.19763916 -110.3435498 236.39527832 -109.74780273 235.56860352 C-105.48226261 229.6067906 -101.43892028 223.53643354 -97.53125 217.3359375 C-94.97151061 213.27602297 -92.30010129 209.29682734 -89.625 205.3125 C-87.52044586 202.15976325 -85.41840428 199.00535048 -83.3190918 195.84912109 C-81.44229111 193.02908756 -79.55875584 190.21549027 -77.6484375 187.41796875 C-77.10445312 186.62003906 -76.56046875 185.82210937 -76 185 C-75.53335938 184.32324219 -75.06671875 183.64648438 -74.5859375 182.94921875 C-73.4562332 181.34137414 -73.4562332 181.34137414 -73.625 179.3125 C-72.965 179.3125 -72.305 179.3125 -71.625 179.3125 C-71.35945312 178.74660156 -71.09390625 178.18070313 -70.8203125 177.59765625 C-70.29050781 176.49744141 -70.29050781 176.49744141 -69.75 175.375 C-69.40195312 174.64410156 -69.05390625 173.91320312 -68.6953125 173.16015625 C-67.625 171.3125 -67.625 171.3125 -65.625 170.3125 C-64.48143236 168.54175853 -64.48143236 168.54175853 -63.375 166.375 C-61.63028331 163.12006081 -59.82357343 159.9226473 -57.9140625 156.76171875 C-57.38941406 155.891521 -56.86476563 155.02132324 -56.32421875 154.12475586 C-55.76347656 153.19671143 -55.20273437 152.26866699 -54.625 151.3125 C-36.92970263 127.10096266 -36.92970263 127.10096266 -26.625 100.3125 C-25.965 100.3125 -25.305 100.3125 -24.625 100.3125 C-20.39129065 91.3400449 -16.16602101 82.36561956 -12.046875 73.33984375 C-10.97088248 71.04892561 -9.84969396 68.81260204 -8.6875 66.56640625 C-2.43650291 54.08954616 2.94496019 39.41003525 0.375 25.3125 C-13.58870252 16.00336499 -42.20031414 32.33182091 -54.37109375 40.20703125 Z M-543.80859375 633.41796875 C-551.27753699 637.23347351 -558.92038779 640.47302664 -566.6875 643.625 C-567.97871579 644.15380838 -569.2697321 644.68310413 -570.56054688 645.21289062 C-574.81688784 646.95741395 -579.07496326 648.69709529 -583.3503418 650.39453125 C-586.07740948 651.4950759 -588.71643139 652.74303427 -591.375 654 C-600.95070109 658.44547304 -610.73290068 662.4028982 -620.5625 666.25 C-635.30196443 672.11570523 -649.86539801 678.82481067 -663.99316406 686.03955078 C-673.15089938 690.71346499 -682.51316522 694.86295816 -691.95800781 698.92456055 C-697.98122145 701.54906121 -703.59658022 704.38588476 -709.171875 707.85693359 C-713.51103866 710.43158464 -718.10803239 712.45636589 -722.6875 714.5625 C-732.07974846 718.96256093 -740.98158581 723.85069673 -749.83251953 729.24169922 C-752.44932816 730.8049412 -755.12579515 732.24858022 -757.8125 733.6875 C-765.30869902 737.73949947 -772.31899799 742.55484599 -778.625 748.3125 C-778.625 748.9725 -778.625 749.6325 -778.625 750.3125 C-779.73875 750.7146875 -779.73875 750.7146875 -780.875 751.125 C-783.54579616 752.27829834 -785.379012 753.48763475 -787.625 755.3125 C-788.40101563 755.93253906 -789.17703125 756.55257812 -789.9765625 757.19140625 C-790.85054687 757.89136719 -791.72453125 758.59132813 -792.625 759.3125 C-794.74610191 760.96373757 -796.86987928 762.6105075 -799 764.25 C-799.55913086 764.68078857 -800.11826172 765.11157715 -800.69433594 765.55541992 C-804.05096888 768.13210649 -807.44119709 770.65140945 -810.875 773.125 C-821.0528851 780.46740391 -830.95447325 788.19865213 -840.8203125 795.953125 C-842.56372891 797.26634775 -844.34638638 798.45415355 -846.1875 799.625 C-846.991875 800.181875 -847.79625 800.73875 -848.625 801.3125 C-848.625 801.9725 -848.625 802.6325 -848.625 803.3125 C-849.42550781 803.66634766 -849.42550781 803.66634766 -850.2421875 804.02734375 C-853.31162397 805.6828267 -856.00389683 807.74268887 -858.75 809.875 C-859.32331055 810.31755127 -859.89662109 810.76010254 -860.48730469 811.21606445 C-864.9302014 814.6842188 -869.11898875 818.37640927 -873.2578125 822.203125 C-876.36364143 824.97069534 -879.65244056 827.44676878 -883.0078125 829.90234375 C-883.54148437 830.36769531 -884.07515625 830.83304688 -884.625 831.3125 C-884.625 831.9725 -884.625 832.6325 -884.625 833.3125 C-885.285 833.3125 -885.945 833.3125 -886.625 833.3125 C-886.625 833.9725 -886.625 834.6325 -886.625 835.3125 C-887.47771484 835.67408203 -887.47771484 835.67408203 -888.34765625 836.04296875 C-891.07288908 837.56218088 -892.89190339 839.38668981 -895.0625 841.625 C-895.85269531 842.43453125 -896.64289063 843.2440625 -897.45703125 844.078125 C-898.17246094 844.81546875 -898.88789062 845.5528125 -899.625 846.3125 C-900.49125 847.158125 -901.3575 848.00375 -902.25 848.875 C-904.92586457 851.62128205 -907.41811897 854.49521672 -909.92578125 857.39453125 C-912.05935445 859.80277135 -914.35047127 862.03797127 -916.625 864.3125 C-918.87363521 866.88236881 -920.454952 868.87237576 -921.6875 872.0625 C-922.1515625 873.17625 -922.1515625 873.17625 -922.625 874.3125 C-923.615 874.6425 -924.605 874.9725 -925.625 875.3125 C-927.07457256 877.28891926 -928.36039932 879.22270845 -929.625 881.3125 C-929.99254395 881.90675781 -930.36008789 882.50101563 -930.73876953 883.11328125 C-931.90143187 885.0054084 -933.04633033 886.90734321 -934.1875 888.8125 C-934.57357422 889.45058594 -934.95964844 890.08867188 -935.35742188 890.74609375 C-937.62698812 894.52741537 -939.68841373 898.34661855 -941.625 902.3125 C-942.25668353 903.53511328 -942.89095805 904.75639016 -943.52734375 905.9765625 C-947.63519291 913.93333337 -951.049209 921.70961184 -953.625 930.3125 C-954.12075772 931.75146857 -954.62055099 933.18905521 -955.125 934.625 C-958.90484331 946.1277972 -961.38548136 957.30578476 -962.5 969.375 C-962.56359711 970.03871613 -962.62719421 970.70243225 -962.69271851 971.38626099 C-964.93064479 995.33060481 -962.65902283 1020.22503109 -947.125 1039.47265625 C-934.73782166 1053.54371665 -920.18944241 1060.12844795 -901.625 1062.3125 C-871.50999358 1064.09863142 -842.83584932 1055.92132081 -816.625 1041.3125 C-816.00399414 1040.97299316 -815.38298828 1040.63348633 -814.74316406 1040.28369141 C-809.09412968 1037.18578257 -803.74981041 1033.86426309 -798.671875 1029.8984375 C-796.26384567 1028.03267432 -793.79082953 1026.27123551 -791.3125 1024.5 C-786.50668407 1021.01511966 -781.90095772 1017.34015828 -777.3359375 1013.546875 C-773.88565649 1010.70312754 -770.35716846 1007.96432016 -766.81640625 1005.234375 C-764.4134641 1003.12698189 -762.57421109 1000.83910345 -760.625 998.3125 C-758.95833333 996.64583333 -757.29166667 994.97916667 -755.625 993.3125 C-752.32724419 989.65843494 -749.1199671 985.93175231 -746 982.125 C-743.66571871 979.36071953 -741.18233886 976.86983886 -738.625 974.3125 C-736.84581424 972.30374188 -735.09215502 970.27440845 -733.33984375 968.2421875 C-731.84611041 966.56131217 -730.31050508 964.99153885 -728.6875 963.4375 C-726.39284154 961.56686301 -726.39284154 961.56686301 -726.625 959.3125 C-725.635 958.9825 -724.645 958.6525 -723.625 958.3125 C-722.2709068 956.32649663 -720.94042376 954.32432457 -719.625 952.3125 C-718.00050757 950.60470027 -716.33279973 948.93699243 -714.625 947.3125 C-712.9208946 945.68413262 -711.24474559 944.02480248 -709.625 942.3125 C-709.625 941.6525 -709.625 940.9925 -709.625 940.3125 C-708.965 940.3125 -708.305 940.3125 -707.625 940.3125 C-703.98866461 936.83251493 -703.98866461 936.83251493 -702.625 932.3125 C-701.635 931.9825 -700.645 931.6525 -699.625 931.3125 C-697.78840748 929.1701753 -697.78840748 929.1701753 -696.0625 926.5625 C-695.46308594 925.70140625 -694.86367188 924.8403125 -694.24609375 923.953125 C-692.71381936 921.45717925 -691.61856413 919.06086645 -690.625 916.3125 C-689.965 916.3125 -689.305 916.3125 -688.625 916.3125 C-687.4064956 914.83769241 -687.4064956 914.83769241 -686.1875 912.8125 C-683.35909333 908.42949693 -680.45826355 904.10835412 -677.5 899.8125 C-677.02949219 899.12857178 -676.55898438 898.44464355 -676.07421875 897.73999023 C-670.65761273 889.88392011 -665.14154965 882.09852727 -659.625 874.3125 C-657.45710137 871.25086976 -655.29074275 868.1881555 -653.125 865.125 C-652.63265869 864.43027588 -652.14031738 863.73555176 -651.63305664 863.01977539 C-649.50253957 860.00659978 -647.4058817 856.98854596 -645.40625 853.88671875 C-643.625 851.3125 -643.625 851.3125 -641.625 850.3125 C-640.93203744 849.13056386 -640.29654669 847.91478655 -639.6875 846.6875 C-636.09227648 839.99995624 -631.44507503 834.06092441 -626.89501953 828.00537109 C-625.81669989 826.56802615 -624.74898205 825.1227372 -623.68359375 823.67578125 C-619.95248557 818.61681 -619.95248557 818.61681 -618.17260742 816.96289062 C-616.50050102 815.17973251 -615.65107129 813.61112599 -614.64453125 811.390625 C-614.11194702 810.23554443 -614.11194702 810.23554443 -613.56860352 809.05712891 C-613.19533936 808.23390137 -612.8220752 807.41067383 -612.4375 806.5625 C-609.67556356 800.59338925 -606.84905435 794.70534208 -603.6875 788.9375 C-599.97397635 782.13108433 -596.64785392 775.16332726 -593.34057617 768.15209961 C-589.87083371 760.80115379 -586.27448188 753.52266427 -582.61035156 746.26708984 C-580.85590933 742.78689547 -579.11650645 739.29918009 -577.375 735.8125 C-576.74485567 734.55205133 -576.11464957 733.29163354 -575.484375 732.03125 C-575.18112305 731.42418213 -574.87787109 730.81711426 -574.56542969 730.19165039 C-573.91163318 728.88524549 -573.25589095 727.57981326 -572.59863281 726.27514648 C-570.61895931 722.33865621 -568.70470038 718.38419643 -566.875 714.375 C-566.36582031 713.26898437 -565.85664062 712.16296875 -565.33203125 711.0234375 C-564.43775005 709.08045162 -563.54459449 707.13697424 -562.65380859 705.19238281 C-555.59889935 689.82263815 -555.59889935 689.82263815 -551.79272461 684.13183594 C-547.81872824 677.94027813 -545.55204933 671.43603921 -543.625 664.375 C-543.37081299 663.46419678 -543.11662598 662.55339355 -542.85473633 661.61499023 C-540.01036174 651.29885251 -537.27681855 640.89395149 -535.625 630.3125 C-538.77743239 630.3125 -541.03119582 631.9742242 -543.80859375 633.41796875 Z M161.4375 651 C160.756875 651.763125 160.07625 652.52625 159.375 653.3125 C158.385 653.9725 157.395 654.6325 156.375 655.3125 C156.375 655.9725 156.375 656.6325 156.375 657.3125 C155.715 657.3125 155.055 657.3125 154.375 657.3125 C152.73824492 658.93049502 152.73824492 658.93049502 151.0625 661 C149.00116081 663.43340663 146.97311347 665.70504033 144.6875 667.9375 C142.6709763 670.00852434 141.13312769 672.03188844 139.59765625 674.46875 C138.00299613 676.87347708 136.24174736 679.13720368 134.5 681.4375 C130.36785662 687.06309595 127.28996073 692.98571023 124.375 699.3125 C125.035 699.6425 125.695 699.9725 126.375 700.3125 C128.90223609 699.12661961 131.27145448 697.88536006 133.6875 696.5 C134.39648438 696.0970874 135.10546875 695.6941748 135.8359375 695.27905273 C140.73829505 692.42500804 145.37055224 689.32152241 149.875 685.875 C150.43227783 685.45049561 150.98955566 685.02599121 151.5637207 684.58862305 C152.87786117 683.54959863 154.13338073 682.43718595 155.375 681.3125 C155.375 680.6525 155.375 679.9925 155.375 679.3125 C155.931875 679.07015625 156.48875 678.8278125 157.0625 678.578125 C163.83578666 674.87112351 169.45614196 668.89618151 173.375 662.3125 C173.85582031 661.85359375 174.33664062 661.3946875 174.83203125 660.921875 C177.67370546 657.95790089 179.11152496 654.17764675 180.375 650.3125 C180.22290518 646.73827175 179.9003164 645.8378164 177.375 643.3125 C171.36311751 643.3125 165.76368831 647.04199793 161.4375 651 Z M200.3125 669.625 C199.59964844 670.23988281 198.88679688 670.85476563 198.15234375 671.48828125 C196.1414373 673.28729547 196.1414373 673.28729547 195.375 676.3125 C194.776875 676.60125 194.17875 676.89 193.5625 677.1875 C190.66256725 678.67889398 189.33989282 680.73357817 187.375 683.3125 C186.74464844 683.93511719 186.11429688 684.55773437 185.46484375 685.19921875 C182.76533666 687.92900069 180.55299932 690.92885822 178.25390625 693.99609375 C176.11898634 696.62812598 173.78404681 698.92733892 171.375 701.3125 C170.1364591 702.6250702 168.9038467 703.94324861 167.67578125 705.265625 C167.02416016 705.966875 166.37253906 706.668125 165.70117188 707.390625 C164.34551598 708.85278732 162.99137669 710.31635708 161.63867188 711.78125 C160.66704102 712.82539062 160.66704102 712.82539062 159.67578125 713.890625 C159.08966064 714.52387695 158.50354004 715.15712891 157.8996582 715.80957031 C156.375 717.3125 156.375 717.3125 154.375 718.3125 C154.375 718.9725 154.375 719.6325 154.375 720.3125 C153.694375 720.51875 153.01375 720.725 152.3125 720.9375 C149.67645433 722.17139372 148.33573978 723.14261423 146.25 725.0625 C141.03386229 729.71412064 134.77418368 732.64100059 128.5390625 735.70703125 C122.56482552 738.74435341 118.27094173 742.06589378 113.6953125 746.953125 C111.19441104 749.49612918 108.54749655 751.66444415 105.75 753.875 C101.65514177 757.14515951 98.19269786 760.50584742 94.91015625 764.5859375 C93.375 766.3125 93.375 766.3125 91.18359375 767.9140625 C90.58675781 768.37554688 89.98992187 768.83703125 89.375 769.3125 C89.375 769.9725 89.375 770.6325 89.375 771.3125 C88.81417725 771.54735107 88.25335449 771.78220215 87.67553711 772.02416992 C84.81661798 773.62520104 82.86914312 775.59388162 80.56640625 777.92578125 C79.65439453 778.84423828 78.74238281 779.76269531 77.80273438 780.70898438 C76.84752616 781.68086175 75.89244907 782.652868 74.9375 783.625 C73.98679478 784.58574846 73.03562715 785.54603957 72.08398438 786.50585938 C70.32265314 788.28459262 68.56338719 790.06537508 66.80688477 791.84887695 C64.34031414 794.34763854 61.86007865 796.83215633 59.375 799.3125 C58.7665625 799.9209375 58.158125 800.529375 57.53125 801.15625 C54.14583333 804.54166667 50.76041667 807.92708333 47.375 811.3125 C50.20649249 812.72824624 51.61621273 811.88200919 54.64404297 811.03662109 C56.29749222 810.58021744 56.29749222 810.58021744 57.98434448 810.11459351 C59.18318268 809.77513702 60.38202087 809.43568054 61.6171875 809.0859375 C62.85107208 808.7412442 64.08495667 808.3965509 65.35623169 808.04141235 C67.97875239 807.30789092 70.59971692 806.56909895 73.21972656 805.82666016 C76.54284974 804.8854456 79.86945796 803.95734369 83.19741631 803.03339195 C86.40192796 802.14162988 89.60312027 801.23821362 92.8046875 800.3359375 C93.98328339 800.0086264 95.16187927 799.68131531 96.37619019 799.34408569 C103.97332401 797.17861408 111.13352602 794.45511312 118.375 791.3125 C120.77989332 790.34261318 123.19721447 789.41270716 125.6171875 788.48046875 C126.88174121 787.98691904 128.14605695 787.49275927 129.41015625 786.99804688 C131.32493891 786.24923966 133.24062321 785.50359088 135.16064453 784.76831055 C144.79326065 781.0724759 153.5358055 776.64802173 162.375 771.3125 C163.57786805 770.59602999 164.78107467 769.88012809 165.98461914 769.16479492 C172.48794236 765.27687938 178.51373005 761.10427167 184.375 756.3125 C186.08316091 754.95811585 187.79149891 753.603955 189.5 752.25 C190.33402344 751.57582031 191.16804688 750.90164063 192.02734375 750.20703125 C193.444346 749.06352694 194.8713207 747.93202075 196.31640625 746.82421875 C201.37950183 742.80319206 205.08700124 737.86911797 208.375 732.3125 C208.375 731.6525 208.375 730.9925 208.375 730.3125 C209.035 730.3125 209.695 730.3125 210.375 730.3125 C211.35850025 728.23120896 212.33664458 726.14738641 213.3125 724.0625 C213.85777344 722.90234375 214.40304687 721.7421875 214.96484375 720.546875 C217.61910768 714.45897877 217.5581975 709.06991272 217.5625 702.5 C217.57474609 701.52740234 217.58699219 700.55480469 217.59960938 699.55273438 C217.62321705 687.92988845 213.76461879 675.48581988 206.375 666.3125 C203.47617089 666.3125 202.46377423 667.73921878 200.3125 669.625 Z M-300.625 791.3125 C-295.85065468 795.81462388 -290.0791419 797.9181467 -284.125 800.4375 C-276.10730269 803.89132175 -268.16176886 807.42873712 -260.3125 811.25 C-250.92598885 815.80278278 -241.36645489 819.91831887 -231.74291992 823.93920898 C-226.00941223 826.35303278 -220.39727068 828.88602426 -214.8515625 831.70703125 C-206.86068302 835.75992538 -198.68049337 839.30703189 -190.4375 842.8125 C-189.66709381 843.14121094 -188.89668762 843.46992187 -188.10293579 843.80859375 C-169.57192462 851.70604213 -150.88711856 858.40977745 -131.625 864.3125 C-130.91907715 864.53067383 -130.2131543 864.74884766 -129.48583984 864.97363281 C-109.31210862 871.16923461 -89.05712868 871.64061804 -68.11474609 872.1953125 C-65.19970564 872.29320108 -62.30327594 872.44936414 -59.39453125 872.65625 C-52.46942035 873.15993911 -52.46942035 873.15993911 -46.109375 870.7734375 C-43.99752148 868.74762246 -42.33659055 866.68144054 -40.625 864.3125 C-39.46521769 863.01464836 -38.29904839 861.7224608 -37.125 860.4375 C-35.02343811 858.20737721 -35.02343811 858.20737721 -34.625 855.3125 C-33.965 855.3125 -33.305 855.3125 -32.625 855.3125 C-32.625 854.6525 -32.625 853.9925 -32.625 853.3125 C-31.965 853.3125 -31.305 853.3125 -30.625 853.3125 C-29.2709068 851.32649663 -27.94042376 849.32432457 -26.625 847.3125 C-25.29166667 845.97916667 -23.95833333 844.64583333 -22.625 843.3125 C-22.625 842.6525 -22.625 841.9925 -22.625 841.3125 C-23.54796875 841.22274902 -24.4709375 841.13299805 -25.421875 841.04052734 C-47.42177722 838.85847182 -68.97130216 835.76123025 -90.625 831.3125 C-92.57549422 830.91913883 -94.52601297 830.52589931 -96.4765625 830.1328125 C-101.28043428 829.15384647 -106.07644315 828.14061366 -110.87060547 827.11523438 C-113.73639075 826.50249527 -116.60260064 825.89193117 -119.46923828 825.28320312 C-124.06754896 824.30669929 -128.66532661 823.32771924 -133.26275635 822.34707642 C-135.09726145 821.95584784 -136.9318531 821.56502478 -138.76654053 821.1746521 C-153.01470155 818.140361 -167.2110856 814.96627206 -181.3203125 811.3359375 C-191.29495436 808.79766519 -201.40046645 806.90357936 -211.5 804.9375 C-223.88634376 802.51526048 -236.19634013 800.01668679 -248.4375 796.9375 C-265.17991055 792.8089295 -283.39239696 790.91786024 -300.625 791.3125 Z M-443.5 795.9375 C-446.17638821 797.97155504 -448.59930188 799.40135016 -451.5625 800.9375 C-461.90208413 806.46214993 -471.13072979 813.72120555 -480.09765625 821.2265625 C-482.47362339 823.18756166 -484.90547883 825.03431137 -487.375 826.875 C-491.71570098 830.21998463 -495.21967897 834.03379352 -498.625 838.3125 C-499.18445313 839.00988281 -499.74390625 839.70726562 -500.3203125 840.42578125 C-501.81458905 842.20435171 -501.81458905 842.20435171 -501.625 844.3125 C-490.90794649 845.09192207 -484.64813584 840.58587885 -476.60571289 833.9050293 C-471.6882981 829.62801826 -467.0872368 825.06344766 -462.5 820.4375 C-461.57574219 819.52097656 -460.65148437 818.60445312 -459.69921875 817.66015625 C-448.73687622 807.05167528 -448.73687622 807.05167528 -440.625 794.3125 C-441.91258168 794.20334491 -441.91258168 794.20334491 -443.5 795.9375 Z " fill="#efcda7" transform="translate(1000.625,-0.3125)"/>
<path d="M0 0 C0.33 0 0.66 0 1 0 C1 1.98 1 3.96 1 6 C0.67 6 0.34 6 0 6 C0 4.02 0 2.04 0 0 Z " fill="#000000" transform="translate(0,946)"/>
<path d="M0 0 C0.33 0 0.66 0 1 0 C1 1.65 1 3.3 1 5 C0.67 5 0.34 5 0 5 C0 3.35 0 1.7 0 0 Z " fill="#000000" transform="translate(1233,730)"/>
<path d="" fill="#000000" transform="translate(0,0)"/>
</svg>
